<svg width="190" height="32" viewBox="0 0 190 32" fill="none" xmlns="http://www.w3.org/2000/svg">
<rect width="32" height="32" rx="4" fill="url(#paint0_linear_1317_2508)"/>
<path d="M20.5868 10.666C21.8981 10.666 22.9383 11.0632 23.7074 11.8575C24.4891 12.6518 24.88 13.7551 24.88 15.1672V21.3327H21.6648V15.6022C21.6648 14.9213 21.482 14.3981 21.1164 14.0324C20.7633 13.6542 20.2716 13.4651 19.6412 13.4651C19.0108 13.4651 18.5127 13.6542 18.1471 14.0324C17.7941 14.3981 17.6175 14.9213 17.6175 15.6022V21.3327H14.4024V15.6022C14.4024 14.9213 14.2196 14.3981 13.854 14.0324C13.5009 13.6542 13.0092 13.4651 12.3788 13.4651C11.7484 13.4651 11.2503 13.6542 10.8847 14.0324C10.5317 14.3981 10.3551 14.9213 10.3551 15.6022V21.3327H7.12109V10.7795H10.3551V12.1034C10.683 11.6621 11.1116 11.3153 11.6412 11.0632C12.1707 10.7984 12.7696 10.666 13.4379 10.666C14.2322 10.666 14.9383 10.8362 15.5561 11.1767C16.1865 11.5171 16.6782 12.0025 17.0313 12.6329C17.3969 12.0529 17.8949 11.5801 18.5253 11.2145C19.1558 10.8488 19.8429 10.666 20.5868 10.666Z" fill="white"/>
<path d="M58.576 10.964C60.24 10.964 61.56 11.468 62.536 12.476C63.528 13.484 64.024 14.884 64.024 16.676V24.5H59.944V17.228C59.944 16.364 59.712 15.7 59.248 15.236C58.8 14.756 58.176 14.516 57.376 14.516C56.576 14.516 55.944 14.756 55.48 15.236C55.032 15.7 54.808 16.364 54.808 17.228V24.5H50.728V17.228C50.728 16.364 50.496 15.7 50.032 15.236C49.584 14.756 48.96 14.516 48.16 14.516C47.36 14.516 46.728 14.756 46.264 15.236C45.816 15.7 45.592 16.364 45.592 17.228V24.5H41.488V11.108H45.592V12.788C46.008 12.228 46.552 11.788 47.224 11.468C47.896 11.132 48.656 10.964 49.504 10.964C50.512 10.964 51.408 11.18 52.192 11.612C52.992 12.044 53.616 12.66 54.064 13.46C54.528 12.724 55.16 12.124 55.96 11.66C56.76 11.196 57.632 10.964 58.576 10.964ZM79.5182 17.588C79.5182 17.972 79.4943 18.372 79.4463 18.788H70.1583C70.2223 19.62 70.4863 20.26 70.9503 20.708C71.4303 21.14 72.0143 21.356 72.7023 21.356C73.7263 21.356 74.4383 20.924 74.8383 20.06H79.2063C78.9823 20.94 78.5743 21.732 77.9823 22.436C77.4063 23.14 76.6783 23.692 75.7983 24.092C74.9183 24.492 73.9343 24.692 72.8463 24.692C71.5343 24.692 70.3663 24.412 69.3423 23.852C68.3183 23.292 67.5183 22.492 66.9423 21.452C66.3663 20.412 66.0783 19.196 66.0783 17.804C66.0783 16.412 66.3583 15.196 66.9183 14.156C67.4943 13.116 68.2943 12.316 69.3183 11.756C70.3423 11.196 71.5183 10.916 72.8463 10.916C74.1423 10.916 75.2943 11.188 76.3023 11.732C77.3103 12.276 78.0943 13.052 78.6543 14.06C79.2303 15.068 79.5182 16.244 79.5182 17.588ZM75.3183 16.508C75.3183 15.804 75.0783 15.244 74.5983 14.828C74.1183 14.412 73.5183 14.204 72.7983 14.204C72.1103 14.204 71.5263 14.404 71.0463 14.804C70.5823 15.204 70.2943 15.772 70.1823 16.508H75.3183ZM94.3073 17.588C94.3073 17.972 94.2833 18.372 94.2353 18.788H84.9473C85.0113 19.62 85.2753 20.26 85.7393 20.708C86.2193 21.14 86.8033 21.356 87.4913 21.356C88.5153 21.356 89.2273 20.924 89.6273 20.06H93.9953C93.7713 20.94 93.3633 21.732 92.7713 22.436C92.1953 23.14 91.4673 23.692 90.5873 24.092C89.7073 24.492 88.7233 24.692 87.6353 24.692C86.3233 24.692 85.1553 24.412 84.1313 23.852C83.1073 23.292 82.3073 22.492 81.7313 21.452C81.1553 20.412 80.8673 19.196 80.8673 17.804C80.8673 16.412 81.1473 15.196 81.7073 14.156C82.2833 13.116 83.0833 12.316 84.1073 11.756C85.1313 11.196 86.3073 10.916 87.6353 10.916C88.9313 10.916 90.0833 11.188 91.0913 11.732C92.0993 12.276 92.8833 13.052 93.4433 14.06C94.0193 15.068 94.3073 16.244 94.3073 17.588ZM90.1073 16.508C90.1073 15.804 89.8673 15.244 89.3873 14.828C88.9073 14.412 88.3073 14.204 87.5873 14.204C86.8993 14.204 86.3153 14.404 85.8353 14.804C85.3713 15.204 85.0833 15.772 84.9713 16.508H90.1073ZM100.576 13.34C101.056 12.604 101.656 12.028 102.376 11.612C103.096 11.18 103.896 10.964 104.776 10.964V15.308H103.648C102.624 15.308 101.856 15.532 101.344 15.98C100.832 16.412 100.576 17.18 100.576 18.284V24.5H96.4724V11.108H100.576V13.34ZM114.922 24.5L110.842 18.884V24.5H106.738V6.74H110.842V16.556L114.898 11.108H119.962L114.394 17.828L120.01 24.5H114.922ZM120.758 17.78C120.758 16.404 121.014 15.196 121.526 14.156C122.054 13.116 122.766 12.316 123.662 11.756C124.558 11.196 125.558 10.916 126.662 10.916C127.606 10.916 128.43 11.108 129.134 11.492C129.854 11.876 130.406 12.38 130.79 13.004V11.108H134.894V24.5H130.79V22.604C130.39 23.228 129.83 23.732 129.11 24.116C128.406 24.5 127.582 24.692 126.638 24.692C125.55 24.692 124.558 24.412 123.662 23.852C122.766 23.276 122.054 22.468 121.526 21.428C121.014 20.372 120.758 19.156 120.758 17.78ZM130.79 17.804C130.79 16.78 130.502 15.972 129.926 15.38C129.366 14.788 128.678 14.492 127.862 14.492C127.046 14.492 126.35 14.788 125.774 15.38C125.214 15.956 124.934 16.756 124.934 17.78C124.934 18.804 125.214 19.62 125.774 20.228C126.35 20.82 127.046 21.116 127.862 21.116C128.678 21.116 129.366 20.82 129.926 20.228C130.502 19.636 130.79 18.828 130.79 17.804ZM145.327 21.02V24.5H143.239C141.751 24.5 140.591 24.14 139.759 23.42C138.927 22.684 138.511 21.492 138.511 19.844V14.516H136.879V11.108H138.511V7.844H142.615V11.108H145.303V14.516H142.615V19.892C142.615 20.292 142.711 20.58 142.903 20.756C143.095 20.932 143.415 21.02 143.863 21.02H145.327ZM153.061 24.692C151.893 24.692 150.853 24.492 149.941 24.092C149.029 23.692 148.309 23.148 147.781 22.46C147.253 21.756 146.957 20.972 146.893 20.108H150.949C150.997 20.572 151.213 20.948 151.597 21.236C151.981 21.524 152.453 21.668 153.013 21.668C153.525 21.668 153.917 21.572 154.189 21.38C154.477 21.172 154.621 20.908 154.621 20.588C154.621 20.204 154.421 19.924 154.021 19.748C153.621 19.556 152.973 19.348 152.077 19.124C151.117 18.9 150.317 18.668 149.677 18.428C149.037 18.172 148.485 17.78 148.021 17.252C147.557 16.708 147.325 15.98 147.325 15.068C147.325 14.3 147.533 13.604 147.949 12.98C148.381 12.34 149.005 11.836 149.821 11.468C150.653 11.1 151.637 10.916 152.773 10.916C154.453 10.916 155.773 11.332 156.733 12.164C157.709 12.996 158.269 14.1 158.413 15.476H154.621C154.557 15.012 154.349 14.644 153.997 14.372C153.661 14.1 153.213 13.964 152.653 13.964C152.173 13.964 151.805 14.06 151.549 14.252C151.293 14.428 151.165 14.676 151.165 14.996C151.165 15.38 151.365 15.668 151.765 15.86C152.181 16.052 152.821 16.244 153.685 16.436C154.677 16.692 155.485 16.948 156.109 17.204C156.733 17.444 157.277 17.844 157.741 18.404C158.221 18.948 158.469 19.684 158.485 20.612C158.485 21.396 158.261 22.1 157.813 22.724C157.381 23.332 156.749 23.812 155.917 24.164C155.101 24.516 154.149 24.692 153.061 24.692ZM162.916 24.692C162.196 24.692 161.604 24.484 161.14 24.068C160.692 23.636 160.468 23.108 160.468 22.484C160.468 21.844 160.692 21.308 161.14 20.876C161.604 20.444 162.196 20.228 162.916 20.228C163.62 20.228 164.196 20.444 164.644 20.876C165.108 21.308 165.34 21.844 165.34 22.484C165.34 23.108 165.108 23.636 164.644 24.068C164.196 24.484 163.62 24.692 162.916 24.692ZM166.953 17.78C166.953 16.404 167.209 15.196 167.721 14.156C168.249 13.116 168.961 12.316 169.857 11.756C170.753 11.196 171.753 10.916 172.857 10.916C173.801 10.916 174.625 11.108 175.329 11.492C176.049 11.876 176.601 12.38 176.985 13.004V11.108H181.089V24.5H176.985V22.604C176.585 23.228 176.025 23.732 175.305 24.116C174.601 24.5 173.777 24.692 172.833 24.692C171.745 24.692 170.753 24.412 169.857 23.852C168.961 23.276 168.249 22.468 167.721 21.428C167.209 20.372 166.953 19.156 166.953 17.78ZM176.985 17.804C176.985 16.78 176.697 15.972 176.121 15.38C175.561 14.788 174.873 14.492 174.057 14.492C173.241 14.492 172.545 14.788 171.969 15.38C171.409 15.956 171.129 16.756 171.129 17.78C171.129 18.804 171.409 19.62 171.969 20.228C172.545 20.82 173.241 21.116 174.057 21.116C174.873 21.116 175.561 20.82 176.121 20.228C176.697 19.636 176.985 18.828 176.985 17.804ZM186.122 9.716C185.402 9.716 184.81 9.508 184.346 9.092C183.898 8.66 183.674 8.132 183.674 7.508C183.674 6.868 183.898 6.34 184.346 5.924C184.81 5.492 185.402 5.276 186.122 5.276C186.826 5.276 187.402 5.492 187.85 5.924C188.314 6.34 188.546 6.868 188.546 7.508C188.546 8.132 188.314 8.66 187.85 9.092C187.402 9.508 186.826 9.716 186.122 9.716ZM188.162 11.108V24.5H184.058V11.108H188.162Z" fill="#171A1F"/>
<defs>
<linearGradient id="paint0_linear_1317_2508" x1="0" y1="0" x2="32.1536" y2="0.155062" gradientUnits="userSpaceOnUse">
<stop stop-color="#F54E00" stop-opacity="0.9"/>
<stop offset="1" stop-color="#F54E00"/>
</linearGradient>
</defs>
</svg>
